<?xml version="1.0" encoding="UTF-8" standalone="no"?>
<!-- Created with Inkscape (http://www.inkscape.org/) -->

<svg
   xmlns:dc="http://purl.org/dc/elements/1.1/"
   xmlns:cc="http://creativecommons.org/ns#"
   xmlns:rdf="http://www.w3.org/1999/02/22-rdf-syntax-ns#"
   xmlns:svg="http://www.w3.org/2000/svg"
   xmlns="http://www.w3.org/2000/svg"
   version="1.1"
   width="300"
   height="73.87606"
   id="svg3777">
  <defs
     id="defs3779" />
  <metadata
     id="metadata3782">
    <rdf:RDF>
      <cc:Work
         rdf:about="">
        <dc:format>image/svg+xml</dc:format>
        <dc:type
           rdf:resource="http://purl.org/dc/dcmitype/StillImage" />
        <dc:title></dc:title>
      </cc:Work>
    </rdf:RDF>
  </metadata>
  <g
     transform="translate(-455.71428,-552.56701)"
     id="layer1">
    <g
       transform="matrix(1.3428625,0,0,1.3428625,106.3793,249.10677)"
       id="g3674">
      <path
         d="m 260.14515,280.994 223.40025,0 0,-55.01387 -223.40025,0 0,55.01387 z"
         id="path3121"
         style="fill:#2b6fc0;fill-opacity:1;fill-rule:nonzero;stroke:none" />
      <path
         d="m 260.14203,280.994 55.01337,0 0,-55.01387 -55.01337,0 0,55.01387 z"
         id="path3123"
         style="fill:#131c49;fill-opacity:1;fill-rule:nonzero;stroke:none" />
      <path
         d="m 315.1554,280.994 168.38788,0 0,-16.92637 -168.38788,0 0,16.92637 z"
         id="path3125"
         style="fill:#fab60a;fill-opacity:1;fill-rule:nonzero;stroke:none" />
      <path
         d="m 323.5419,276.65363 1.1035,0 0,-7.70201 -1.1035,0 0,7.70201 z"
         id="path3127"
         style="fill:#131c49;fill-opacity:1;fill-rule:nonzero;stroke:none" />
      <path
         d="m 323.5419,276.65363 1.1035,0 0,-7.70201 -1.1035,0 0,7.70201 z"
         id="path3129"
         style="fill:none;stroke:#131c49;stroke-width:0.31874999;stroke-linecap:butt;stroke-linejoin:miter;stroke-miterlimit:4;stroke-opacity:1;stroke-dasharray:none" />
      <path
         d="m 332.55753,268.95162 1.50037,0 3.39925,6.20175 0.0217,0 0,-6.20175 1.1035,0 0,7.70201 -1.41225,0 -3.48737,-6.33338 -0.0217,0 0,6.33338 -1.1035,0"
         id="path3131"
         style="fill:#131c49;fill-opacity:1;fill-rule:nonzero;stroke:none" />
      <path
         d="m 332.55753,268.95162 1.50037,0 3.39925,6.20175 0.0217,0 0,-6.20175 1.1035,0 0,7.70201 -1.41225,0 -3.48737,-6.33338 -0.0217,0 0,6.33338 -1.1035,0 0,-7.70201 z"
         id="path3133"
         style="fill:none;stroke:#131c49;stroke-width:0.31874999;stroke-linecap:butt;stroke-linejoin:miter;stroke-miterlimit:4;stroke-opacity:1;stroke-dasharray:none" />
      <path
         d="m 348.03078,269.92288 -2.39488,0 0,-0.97126 5.8925,0 0,0.97126 -2.39425,0 0,6.73075 -1.10337,0"
         id="path3135"
         style="fill:#131c49;fill-opacity:1;fill-rule:nonzero;stroke:none" />
      <path
         d="m 348.03078,269.92288 -2.39488,0 0,-0.97126 5.8925,0 0,0.97126 -2.39425,0 0,6.73075 -1.10337,0 0,-6.73075 z"
         id="path3137"
         style="fill:none;stroke:#131c49;stroke-width:0.31874999;stroke-linecap:butt;stroke-linejoin:miter;stroke-miterlimit:4;stroke-opacity:1;stroke-dasharray:none" />
      <path
         d="m 358.6479,268.95162 4.31438,0 0,0.97126 -3.21138,0 0,2.25037 2.925,0 0,0.97125 -2.925,0 0,2.538 3.21138,0 0,0.97113 -4.31438,0"
         id="path3139"
         style="fill:#131c49;fill-opacity:1;fill-rule:nonzero;stroke:none" />
      <path
         d="m 358.6479,268.95162 4.31438,0 0,0.97126 -3.21138,0 0,2.25037 2.925,0 0,0.97125 -2.925,0 0,2.538 3.21138,0 0,0.97113 -4.31438,0 0,-7.70201 z"
         id="path3141"
         style="fill:none;stroke:#131c49;stroke-width:0.31874999;stroke-linecap:butt;stroke-linejoin:miter;stroke-miterlimit:4;stroke-opacity:1;stroke-dasharray:none" />
      <path
         d="m 371.72578,272.2615 0.93825,0 c 1.04762,0 1.666,-0.46275 1.666,-1.2025 0,-0.69525 -0.53025,-1.13612 -1.546,-1.13612 l -1.05825,0 0,2.33862 z m -1.10388,-3.30988 1.887,0 c 1.5225,0 2.99088,0.24276 2.99088,2.08563 0,0.93788 -0.69588,1.6 -1.58838,1.75462 l 0,0.0216 c 0.341,0.13287 0.50575,0.29787 0.749,0.77312 l 1.45675,3.06701 -1.258,0 -1.1805,-2.67063 c -0.34212,-0.75025 -0.7055,-0.75025 -1.29087,-0.75025 l -0.662,0 0,3.42088 -1.10388,0"
         id="path3143"
         style="fill:#131c49;fill-opacity:1;fill-rule:nonzero;stroke:none" />
      <path
         d="m 371.72578,272.2615 0.93825,0 c 1.04762,0 1.666,-0.46275 1.666,-1.2025 0,-0.69525 -0.53025,-1.13612 -1.546,-1.13612 l -1.05825,0 0,2.33862 z m -1.10388,-3.30988 1.887,0 c 1.5225,0 2.99088,0.24276 2.99088,2.08563 0,0.93788 -0.69588,1.6 -1.58838,1.75462 l 0,0.0216 c 0.341,0.13287 0.50575,0.29787 0.749,0.77312 l 1.45675,3.06701 -1.258,0 -1.1805,-2.67063 c -0.34212,-0.75025 -0.7055,-0.75025 -1.29087,-0.75025 l -0.662,0 0,3.42088 -1.10388,0 0,-7.702 z"
         id="path3145"
         style="fill:none;stroke:#131c49;stroke-width:0.31874999;stroke-linecap:butt;stroke-linejoin:miter;stroke-miterlimit:4;stroke-opacity:1;stroke-dasharray:none" />
      <path
         d="m 383.38028,268.95162 1.50037,0 3.39788,6.20175 0.0222,0 0,-6.20175 1.104,0 0,7.70201 -1.41313,0 -3.48712,-6.33338 -0.0213,0 0,6.33338 -1.103,0"
         id="path3147"
         style="fill:#131c49;fill-opacity:1;fill-rule:nonzero;stroke:none" />
      <path
         d="m 383.38028,268.95162 1.50037,0 3.39788,6.20175 0.0222,0 0,-6.20175 1.104,0 0,7.70201 -1.41313,0 -3.48712,-6.33338 -0.0213,0 0,6.33338 -1.103,0 0,-7.70201 z"
         id="path3149"
         style="fill:none;stroke:#131c49;stroke-width:0.31874999;stroke-linecap:butt;stroke-linejoin:miter;stroke-miterlimit:4;stroke-opacity:1;stroke-dasharray:none" />
      <path
         d="m 400.29753,269.98925 -1.53425,3.81725 3.0685,0 -1.53425,-3.81725 z m -0.53975,-1.03763 1.15812,0 3.2555,7.70201 -1.20387,0 -0.782,-1.94238 -3.775,0 -0.78313,1.94238 -1.15912,0"
         id="path3151"
         style="fill:#131c49;fill-opacity:1;fill-rule:nonzero;stroke:none" />
      <path
         d="m 400.29753,269.98925 -1.53425,3.81725 3.0685,0 -1.53425,-3.81725 z m -0.53975,-1.03763 1.15812,0 3.2555,7.70201 -1.20387,0 -0.782,-1.94238 -3.775,0 -0.78313,1.94238 -1.15912,0 3.2895,-7.70201 z"
         id="path3153"
         style="fill:none;stroke:#131c49;stroke-width:0.31874999;stroke-linecap:butt;stroke-linejoin:miter;stroke-miterlimit:4;stroke-opacity:1;stroke-dasharray:none" />
      <path
         d="m 411.96378,269.92288 -2.39488,0 0,-0.97126 5.89363,0 0,0.97126 -2.39488,0 0,6.73075 -1.10387,0"
         id="path3155"
         style="fill:#131c49;fill-opacity:1;fill-rule:nonzero;stroke:none" />
      <path
         d="m 411.96378,269.92288 -2.39488,0 0,-0.97126 5.89363,0 0,0.97126 -2.39488,0 0,6.73075 -1.10387,0 0,-6.73075 z"
         id="path3157"
         style="fill:none;stroke:#131c49;stroke-width:0.31874999;stroke-linecap:butt;stroke-linejoin:miter;stroke-miterlimit:4;stroke-opacity:1;stroke-dasharray:none" />
      <path
         d="m 422.52715,276.65363 1.10175,0 0,-7.70201 -1.10175,0 0,7.70201 z"
         id="path3159"
         style="fill:#131c49;fill-opacity:1;fill-rule:nonzero;stroke:none" />
      <path
         d="m 422.52715,276.65363 1.10175,0 0,-7.70201 -1.10175,0 0,7.70201 z"
         id="path3161"
         style="fill:none;stroke:#131c49;stroke-width:0.31874999;stroke-linecap:butt;stroke-linejoin:miter;stroke-miterlimit:4;stroke-opacity:1;stroke-dasharray:none" />
      <path
         d="m 434.86378,275.81537 c 1.7765,0 2.53837,-1.47862 2.53837,-3.01225 0,-1.56775 -0.8395,-3.02449 -2.53837,-3.01312 -1.7,-0.0113 -2.53825,1.44537 -2.53825,3.01312 0,1.53363 0.76175,3.01225 2.53825,3.01225 z m 0,-6.99662 c 2.33862,0 3.706,1.69962 3.706,3.98437 0,2.33888 -1.35675,3.98338 -3.706,3.98338 -2.35125,0 -3.70813,-1.6445 -3.70813,-3.98338 0,-2.28475 1.3675,-3.98437 3.70813,-3.98437"
         id="path3163"
         style="fill:#131c49;fill-opacity:1;fill-rule:nonzero;stroke:none" />
      <path
         d="m 434.86378,275.81537 c 1.7765,0 2.53837,-1.47862 2.53837,-3.01225 0,-1.56775 -0.8395,-3.02449 -2.53837,-3.01312 -1.7,-0.0113 -2.53825,1.44537 -2.53825,3.01312 0,1.53363 0.76175,3.01225 2.53825,3.01225 z m 0,-6.99662 c 2.33862,0 3.706,1.69962 3.706,3.98437 0,2.33888 -1.35675,3.98338 -3.706,3.98338 -2.35125,0 -3.70813,-1.6445 -3.70813,-3.98338 0,-2.28475 1.3675,-3.98437 3.70813,-3.98437 z"
         id="path3165"
         style="fill:none;stroke:#131c49;stroke-width:0.31874999;stroke-linecap:butt;stroke-linejoin:miter;stroke-miterlimit:4;stroke-opacity:1;stroke-dasharray:none" />
      <path
         d="m 446.0859,268.95162 1.50025,0 3.4,6.20175 0.0224,0 0,-6.20175 1.10387,0 0,7.70201 -1.41312,0 -3.486,-6.33338 -0.0234,0 0,6.33338 -1.104,0"
         id="path3167"
         style="fill:#131c49;fill-opacity:1;fill-rule:nonzero;stroke:none" />
      <path
         d="m 446.0859,268.95162 1.50025,0 3.4,6.20175 0.0224,0 0,-6.20175 1.10387,0 0,7.70201 -1.41312,0 -3.486,-6.33338 -0.0234,0 0,6.33338 -1.104,0 0,-7.70201 z"
         id="path3169"
         style="fill:none;stroke:#131c49;stroke-width:0.31874999;stroke-linecap:butt;stroke-linejoin:miter;stroke-miterlimit:4;stroke-opacity:1;stroke-dasharray:none" />
      <path
         d="m 463.00515,269.98925 -1.53312,3.81725 3.06737,0 -1.53425,-3.81725 z m -0.54187,-1.03763 1.16025,0 3.25437,7.70201 -1.20162,0 -0.78413,-1.94238 -3.77287,0 -0.78413,1.94238 -1.15812,0"
         id="path3171"
         style="fill:#131c49;fill-opacity:1;fill-rule:nonzero;stroke:none" />
      <path
         d="m 463.00515,269.98925 -1.53312,3.81725 3.06737,0 -1.53425,-3.81725 z m -0.54187,-1.03763 1.16025,0 3.25437,7.70201 -1.20162,0 -0.78413,-1.94238 -3.77287,0 -0.78413,1.94238 -1.15812,0 3.28625,-7.70201 z"
         id="path3173"
         style="fill:none;stroke:#131c49;stroke-width:0.31874999;stroke-linecap:butt;stroke-linejoin:miter;stroke-miterlimit:4;stroke-opacity:1;stroke-dasharray:none" />
      <path
         d="m 473.94365,268.95162 1.10175,0 0,6.73088 3.2225,0 0,0.97112 -4.32425,0"
         id="path3175"
         style="fill:#131c49;fill-opacity:1;fill-rule:nonzero;stroke:none" />
      <path
         d="m 473.94365,268.95162 1.10175,0 0,6.73088 3.2225,0 0,0.97112 -4.32425,0 0,-7.702 z"
         id="path3177"
         style="fill:none;stroke:#131c49;stroke-width:0.31874999;stroke-linecap:butt;stroke-linejoin:miter;stroke-miterlimit:4;stroke-opacity:1;stroke-dasharray:none" />
      <path
         d="m 287.71828,233.79887 c 1.97037,1.90613 4.17262,3.92838 6.07937,5.89876 l -2.22837,2.87199 0,0.14163 5.90812,2.64075 3.99275,-2.74337 -2.40887,-2.67913 0,-0.193 c 2.47312,-1.752 4.59812,-3.43912 6.994,-5.04887 l -1.15963,12.00337 -34.48712,0 -1.159,-12.00337 c 2.39537,1.60975 4.52037,3.29687 6.99337,5.04887 l 0,0.193 -2.40875,2.67913 3.99263,2.74337 5.90875,-2.64075 0,-0.14163 -2.22838,-2.87199 c 1.90613,-1.97038 4.10838,-3.99263 6.07888,-5.89876"
         id="path3179"
         style="fill:#ffffff;fill-opacity:1;fill-rule:nonzero;stroke:none" />
      <path
         d="m 304.63165,248.855 -0.34812,4.00037 -12.76713,-0.005 0.004,13.82088 6.21788,-0.0405 c 1.38662,-0.002 2.84662,-1.46188 2.54987,-2.42075 -0.33462,-1.39125 -1.584,-2.31838 -2.74287,-3.01363 0.23187,0 4.49487,-3.14287 6.49112,-4.49487 -0.0903,0.86262 -1.52012,12.158 -1.5325,12.33862 l -14.7345,5.602 -0.23487,0 -14.73388,-5.602 c -0.013,-0.18062 -1.44237,-11.476 -1.5325,-12.33862 1.99625,1.352 6.25925,4.49487 6.49113,4.49487 -1.1595,0.69525 -2.40825,1.62238 -2.74338,3.01363 -0.29625,0.95887 1.16363,2.41875 2.54988,2.42075 l 6.21837,0.0405 0.004,-13.82088 -12.76662,0.005 -0.34813,-4.00037"
         id="path3181"
         style="fill:#ffffff;fill-opacity:1;fill-rule:nonzero;stroke:none" />
      <path
         d="m 326.1769,245.049 c 2.46988,-0.0254 5.35188,-1.15738 5.35188,-4.01338 0,-3.01012 -2.6505,-4.22 -5.35188,-4.194 l 0,8.20738 z m -2.26412,-3.39613 c 0,-3.936 -0.12875,-4.528 -3.01013,-4.78537 l 0,-0.36 6.2775,-0.20588 c 6.4835,-0.206 6.99863,2.95863 6.99863,4.19388 0,2.16087 -1.33788,3.39612 -3.19063,4.2195 l 0.12875,0.17987 c 1.98075,3.47338 4.45125,7.89875 8.69613,8.77338 l -0.0769,0.3855 c -2.72787,-0.12813 -4.73412,-0.0508 -6.22662,-1.59463 -1.698,-1.77537 -3.036,-4.0395 -3.57663,-5.1455 -1.02875,-2.136 -1.95475,-1.518 -3.756,-1.82712 l 0,4.1425 c 0,2.83012 0.0513,3.34462 3.576,3.83337 l 0,0.386 -9.03075,0 0,-0.386 c 3.088,-0.41137 3.11338,-1.18337 3.19063,-3.83337"
         id="path3183"
         style="fill:#ffffff;fill-opacity:1;fill-rule:nonzero;stroke:none" />
      <path
         d="m 343.51665,242.76938 c -2.77862,0 -3.91062,2.88137 -3.91062,5.24874 0,2.39263 1.33787,5.50538 4.11662,5.50538 2.59863,0 3.756,-2.95862 3.756,-5.17125 0,-2.36675 -1.15737,-5.58287 -3.962,-5.58287 z m 0.0259,11.32024 c -3.52475,0 -6.32925,-2.23812 -6.32925,-5.8915 0,-3.55062 2.90725,-5.99525 6.35475,-5.99525 3.49925,0 6.30387,2.26463 6.30387,5.89201 0,3.49925 -2.93325,5.99474 -6.32937,5.99474"
         id="path3185"
         style="fill:#ffffff;fill-opacity:1;fill-rule:nonzero;stroke:none" />
      <path
         d="m 350.69015,244.77513 c -0.46287,-1.158 -0.5655,-1.41525 -1.85225,-1.62138 l 0,-0.38588 5.326,0 0,0.38588 c -1.95525,0.10275 -1.44112,1.28675 -0.9265,2.59875 l 2.52188,6.53537 1.59487,-4.63137 c 1.15788,-3.34463 1.36338,-4.24538 -0.54012,-4.50275 l 0,-0.38588 4.5025,0 0,0.38588 c -1.133,0.12875 -1.492,0.592 -1.98175,1.57 l -1.08013,2.49487 -3.9625,9.95725 c -0.9515,2.39288 -1.62087,3.19063 -2.6495,3.19063 -0.69525,0 -1.26125,-0.566 -1.26125,-1.28663 0,-0.54 0.30875,-1.02925 0.82375,-1.20937 0.25738,0.15412 1.05475,0.72062 1.3635,0.72062 0.566,0 1.02938,-1.38925 1.20925,-1.77525 l 0.84888,-1.98125"
         id="path3187"
         style="fill:#ffffff;fill-opacity:1;fill-rule:nonzero;stroke:none" />
      <path
         d="m 363.02453,249.75763 c -0.10275,0.33412 -0.18063,0.66874 -0.18063,1.02924 0,1.08013 0.6185,2.03213 1.80138,2.03213 0.69525,0 1.38937,-0.46262 1.853,-0.952 l 0,-3.88463 -3.47375,1.77526 z m 3.47375,-2.29 c 0.20512,-2.80463 -0.5145,-3.962 -2.54813,-3.962 -1.77437,0 -1.59375,0.84925 -1.59375,2.264 l -1.28675,0.0772 c -0.2065,0 -0.5925,0.0255 -0.5925,-0.25724 0,-0.69475 2.83063,-3.37063 4.91513,-3.37063 2.36612,0 3.0865,1.80125 3.0865,3.85938 l 0,3.65375 c 0,2.26362 -0.21675,3.67837 2.23875,3.29287 l 0,0.581 c -0.9775,0.28288 -1.8265,0.371 -2.59888,0.371 -1.08062,0 -1.49175,-0.61738 -1.62037,-1.62063 -0.82375,0.926 -1.95575,1.74938 -3.26838,1.74938 -1.6455,0 -2.57312,-1.3895 -2.57312,-2.93338 0,-0.3855 0.0519,-0.746 0.1555,-1.132"
         id="path3189"
         style="fill:#ffffff;fill-opacity:1;fill-rule:nonzero;stroke:none" />
      <path
         d="m 369.53278,253.84838 0,-0.62363 c 1.78612,-0.21425 2.006,-0.624 2.006,-2.361 l 0,-10.93625 c 0,-1.08075 0.0266,-1.41475 -1.26013,-2.3415 l 0,-0.25725 2.958,-1.132 0.28363,0.10262 0,14.56438 c 0,2.10988 0.10212,2.31538 2.00712,2.59862 l 0,0.38601"
         id="path3191"
         style="fill:#ffffff;fill-opacity:1;fill-rule:nonzero;stroke:none" />
      <path
         d="m 396.3684,249.75763 c -0.101,0.33412 -0.17962,0.66874 -0.17962,1.02924 0,1.08013 0.61737,2.03213 1.80087,2.03213 0.695,0 1.38988,-0.46262 1.85313,-0.952 l 0,-3.88463 -3.47438,1.77526 z m 3.47438,-2.29 c 0.205,-2.80463 -0.51425,-3.962 -2.54788,-3.962 -1.77437,0 -1.59487,0.84925 -1.59487,2.264 l -1.28563,0.0772 c -0.20612,0 -0.59175,0.0255 -0.59175,-0.25724 0,-0.69475 2.82938,-3.37063 4.914,-3.37063 2.36625,0 3.08663,1.80125 3.08663,3.85938 l 0,3.65375 c 0,2.26362 -0.25613,3.82887 2.23862,3.29287 l 0,0.581 c -0.9775,0.28288 -1.82637,0.371 -2.59887,0.371 -1.0805,0 -1.49175,-0.61738 -1.62025,-1.62063 -0.8235,0.926 -1.955,1.74938 -3.26725,1.74938 -1.64688,0 -2.57338,-1.3895 -2.57338,-2.93338 0,-0.3855 0.0521,-0.746 0.15413,-1.132"
         id="path3193"
         style="fill:#ffffff;fill-opacity:1;fill-rule:nonzero;stroke:none" />
      <path
         d="m 392.33403,241.644 -0.38675,0 c -0.48875,-2.90725 -2.1855,-4.99125 -5.27425,-4.99125 -4.708,0 -7.35775,3.85937 -7.35775,8.28462 0,5.06875 3.8845,8.59338 7.61587,8.59338 3.36925,0 4.708,-2.47 5.86613,-5.24863 l 0.35912,0.15463 c -0.30812,1.56937 -0.79687,3.11325 -1.41412,4.60537 -1.64688,0.7975 -3.42238,1.10613 -5.24988,1.10613 -5.37625,0 -10.16175,-3.0875 -10.16175,-8.902 0,-4.5795 3.57538,-9.21087 10.36788,-9.21087 1.95712,0 3.93662,0.386 5.6355,1.38937"
         id="path3195"
         style="fill:#ffffff;fill-opacity:1;fill-rule:nonzero;stroke:none" />
      <path
         d="m 457.50353,249.74887 c -0.10088,0.3345 -0.1785,0.66863 -0.1785,1.02925 0,1.08063 0.61725,2.03263 1.802,2.03263 0.69275,0 1.38762,-0.46325 1.85087,-0.952 l 0,-3.88525 -3.47437,1.77537 z m 3.47437,-2.29012 c 0.20725,-2.80413 -0.51425,-3.962 -2.54675,-3.962 -1.77337,0 -1.59487,0.84925 -1.59487,2.26412 l -1.28663,0.0772 c -0.20625,0 -0.59187,0.0254 -0.59187,-0.25737 0,-0.69463 2.8305,-3.37063 4.91412,-3.37063 2.36725,0 3.08763,1.80138 3.08763,3.85938 l 0,3.65337 c 0,2.26463 -0.36338,3.70313 1.98575,3.5745 l 0,0.4545 c -0.9775,0.28325 -1.57463,0.21638 -2.347,0.21638 -1.0785,0 -1.49175,-0.61738 -1.62038,-1.62075 -0.82125,0.926 -1.955,1.74937 -3.26612,1.74937 -1.64788,0 -2.57338,-1.3895 -2.57338,-2.93275 0,-0.386 0.0521,-0.74662 0.153,-1.1325"
         id="path3197"
         style="fill:#ffffff;fill-opacity:1;fill-rule:nonzero;stroke:none" />
      <path
         d="m 406.86053,250.85487 c 0,2.10988 0.10312,2.316 2.57237,2.59875 l 0,0.386 -6.43137,0 0,-0.61275 c 1.73187,-0.151 1.853,-0.57225 1.8775,-2.57949 l 0,-4.70651 c 0,-1.08075 0.0265,-1.41487 -1.26013,-2.34137 l 0,-0.25725 3.061,-1.13213 0.28375,0.10325 -0.10312,3.036 0.051,0 c 0.56525,-1.36387 2.00812,-3.13925 3.6285,-3.13925 0.72037,0 1.31212,0.46325 1.31212,1.18388 0,0.69462 -0.74687,1.3375 -1.33875,1.62075 -0.43662,-0.33463 -1.0805,-0.90063 -1.64575,-0.84925 -2.18775,0.20588 -2.00712,3.70525 -2.00712,4.09075"
         id="path3199"
         style="fill:#ffffff;fill-opacity:1;fill-rule:nonzero;stroke:none" />
      <path
         d="m 416.84278,237.92437 c 0,0.7205 -0.59288,1.3125 -1.31225,1.3125 -0.72138,0 -1.31325,-0.592 -1.31325,-1.3125 0,-0.72012 0.59187,-1.3115 1.31325,-1.3115 0.71937,0 1.31225,0.59138 1.31225,1.3115 z m -4.19375,15.91525 0,-0.386 c 1.903,-0.28275 1.9805,-0.5915 2.006,-2.59875 l 0,-4.914 c 0,-1.08075 0.0255,-1.41487 -1.56925,-2.34137 l 0,-0.25725 3.26712,-1.13213 0.28475,0.10325 0,8.5415 c 0,2.10988 0.101,2.316 2.006,2.59875 l 0,0.386"
         id="path3201"
         style="fill:#ffffff;fill-opacity:1;fill-rule:nonzero;stroke:none" />
      <path
         d="m 421.5634,248.61675 c 0,2.39275 0.25713,4.68275 3.24175,4.68275 1.41525,0 3.70388,-1.13212 3.70388,-4.70862 0,-3.08738 -2.056,-5.09413 -4.55288,-5.09413 -0.8755,0 -1.59587,0.23138 -2.39275,0.566 l 0,4.554 z m -1.9815,-8.69812 c 0,-1.08075 0.0265,-1.41525 -1.26012,-2.34138 l 0,-0.25725 2.96012,-1.13212 0.2815,0.10275 0,7.36012 c 1.26013,-0.694 2.8305,-1.44063 4.29575,-1.44063 2.85813,0 4.8375,2.65 4.8375,5.35151 0,4.55387 -4.19362,6.53525 -7.022,6.53525 -1.54487,0 -2.702,-0.4115 -4.09275,-1.02938"
         id="path3203"
         style="fill:#ffffff;fill-opacity:1;fill-rule:nonzero;stroke:none" />
      <path
         d="m 433.86715,248.61675 c 0,2.39275 0.25825,4.68275 3.24175,4.68275 1.41525,0 3.70388,-1.13212 3.70388,-4.70862 0,-3.08738 -2.05813,-5.09413 -4.55288,-5.09413 -0.8755,0 -1.59587,0.23138 -2.39275,0.566 l 0,4.554 z m -1.9815,-8.69812 c 0,-1.08075 0.0255,-1.41525 -1.25912,-2.34138 l 0,-0.25725 2.957,-1.13212 0.28362,0.10275 0,7.36012 c 1.26013,-0.694 2.8305,-1.44063 4.29575,-1.44063 2.856,0 4.8375,2.65 4.8375,5.35151 0,4.55387 -4.19362,6.53525 -7.02412,6.53525 -1.54388,0 -2.69988,-0.4115 -4.09063,-1.02938"
         id="path3205"
         style="fill:#ffffff;fill-opacity:1;fill-rule:nonzero;stroke:none" />
      <path
         d="m 451.48553,245.298 c -0.2295,-1.18388 -0.952,-2.52188 -2.31513,-2.52188 -1.46525,0 -2.34075,1.44075 -2.62337,2.72738 l 4.9385,-0.2055 z m -5.11913,1.98087 c -0.20512,2.67588 1.62038,5.17138 4.52838,5.17138 1.33875,0 2.26425,-0.5915 3.03562,-1.62075 l 0.38563,0.28275 c -0.97638,1.6725 -2.72638,2.98462 -4.7335,2.98462 -3.19163,0 -5.40375,-2.62412 -5.40375,-5.712 0,-3.31875 2.31625,-6.17475 5.79062,-6.17475 2.313,0 3.85788,1.46663 3.961,3.782 l -7.462,0"
         id="path3207"
         style="fill:#ffffff;fill-opacity:1;fill-rule:nonzero;stroke:none" />
      <path
         d="m 466.07903,245.94087 c 0,-1.08075 0.0244,-1.41487 -1.26225,-2.34137 l 0,-0.25725 3.06312,-1.13213 0.28263,0.10325 -0.20613,1.878 c 1.46525,-1.08062 2.8805,-1.98125 4.52838,-1.98125 3.08762,0 3.24175,2.54738 3.24175,4.06525 l 0,4.5795 c 0,2.10988 0.103,2.316 2.007,2.59875 l 0,0.386 -5.99563,0 0,-0.386 c 1.905,-0.28275 1.9815,-0.5915 2.00913,-2.59875 l 0,-2.95862 c 0,-1.80088 0.0765,-4.34813 -3.06313,-4.34813 -1.054,0 -1.77437,0.33463 -2.62337,1.1065 l 0,6.20025 c 0,2.10988 0.102,2.316 2.007,2.59875 l 0,0.386 -5.99563,0 -0.004,-0.469 c 1.84563,-0.14275 1.98375,-0.5085 2.01138,-2.51575"
         id="path3209"
         style="fill:#ffffff;fill-opacity:1;fill-rule:nonzero;stroke:none" />
    </g>
  </g>
</svg>
